<svg width="77" height="30" viewBox="0 0 77 30" fill="none" xmlns="http://www.w3.org/2000/svg">
<path d="M6.83638 12.793C7.07859 12.8526 7.48918 13.1429 7.74919 13.2768C8.30613 13.5638 8.76126 13.7714 9.35493 13.9787C11.6041 14.7643 14.0612 15.2491 16.4116 15.6415C18.191 15.9386 20.1026 16.2057 21.8926 16.4276L23.6145 16.6281C24.6287 16.7394 26.0577 16.7495 26.478 17.8964C27.012 19.3543 24.9476 20.4905 23.8854 21.021C21.9266 21.9994 19.7987 22.7763 17.7328 23.51L8.47791 26.7023C7.32969 27.1102 6.09356 27.5273 4.96655 27.9837C4.40147 28.1577 3.71529 28.4693 3.156 28.6859C2.56255 28.9158 1.94056 29.1902 1.35199 29.4244C1.09717 29.5262 0.200449 29.9606 0.0228072 30L0 29.9804C0.1407 29.7815 1.62784 28.8438 1.89803 28.6701C7.49317 25.0948 13.3749 21.989 19.4829 19.3848C19.0835 19.4094 17.8336 19.236 17.3728 19.1628C14.3443 18.682 10.7733 18.1485 8.16465 16.4538C7.44528 15.9865 6.76464 15.1953 6.63125 14.3489C6.56567 13.9328 6.59487 13.1378 6.83638 12.793Z" fill="url(#paint0_linear_129_88)"/>
<path d="M20.8526 0C20.8601 0.00265017 20.8676 0.0046582 20.8748 0.00795083C21.2145 0.16407 21.6854 0.82645 21.8329 1.16299C22.156 1.90054 22.0149 2.85669 21.722 3.57751C20.443 6.72476 15.9177 10.1037 13.2301 12.1569C12.7888 12.494 11.2142 13.7358 10.7558 13.9113C10.4348 14.0343 9.34376 13.5484 8.99862 13.4041C8.61504 13.2689 7.59063 12.7692 7.27393 12.5254C7.58389 12.2824 7.91478 12.0496 8.23069 11.8125C11.0504 9.69549 13.8703 7.55996 16.4867 5.19283C17.8079 3.99755 19.1158 2.73197 20.1352 1.26244C20.3552 0.94544 20.7428 0.366419 20.8526 0Z" fill="url(#paint1_linear_129_88)"/>
<path d="M34.1466 10.5587L42.1456 10.3708C42.3349 10.3762 42.4296 10.4443 42.4296 10.5751L42.1086 12.2504C42.0922 12.3321 42.0634 12.3893 42.0222 12.422C41.9893 12.4547 41.9152 12.4738 41.8 12.4792L39.4052 12.5364L37.603 22.9723C37.5783 23.1031 37.4713 23.1712 37.2821 23.1766L34.7145 23.2338C34.5499 23.2338 34.4676 23.1821 34.4676 23.0786L36.2822 12.6018L33.8257 12.6508C33.62 12.6454 33.5171 12.5827 33.5171 12.4629L33.8257 10.7631C33.8339 10.6323 33.9409 10.5642 34.1466 10.5587Z" fill="#102E65"/>
<path d="M43.5158 21.6729C43.3266 21.346 43.1949 21.0246 43.1208 20.7086C43.055 20.3872 43.0221 19.9486 43.0221 19.3929C43.0221 18.8372 43.1126 18.1507 43.2937 17.3335C43.8944 14.6094 45.7625 13.2474 48.8979 13.2474C50.1076 13.2474 51.0334 13.5225 51.6753 14.0728C52.3172 14.6231 52.6382 15.3368 52.6382 16.2139C52.6382 17.0911 52.5559 17.9437 52.3913 18.7718C52.3666 18.9189 52.239 18.9952 52.0086 19.0006L45.9106 19.1396C45.9024 19.2213 45.8983 19.3302 45.8983 19.4664C45.8983 20.0821 46.0587 20.5697 46.3797 20.9293C46.7089 21.2888 47.2026 21.4686 47.861 21.4686C48.5193 21.4686 49.1283 21.406 49.6879 21.2807C50.2557 21.1499 50.589 21.0845 50.6878 21.0845C50.7865 21.0845 50.873 21.1063 50.947 21.1499C51.0211 21.1935 51.0581 21.2534 51.0581 21.3297L50.8112 22.768C50.803 22.8497 50.7783 22.9042 50.7372 22.9315C50.7043 22.9532 50.6343 22.9778 50.5273 23.005C49.5316 23.1957 48.5728 23.291 47.6511 23.291C46.7294 23.291 46.0135 23.2175 45.5033 23.0704C44.993 22.9233 44.5816 22.7353 44.2688 22.5065C43.9643 22.2722 43.7134 21.9944 43.5158 21.6729ZM46.2069 17.0883L46.0958 17.6114L49.3176 17.5051C49.4575 17.4997 49.548 17.4833 49.5892 17.4561C49.7126 17.3744 49.7743 17.151 49.7743 16.786C49.7743 16.4155 49.7538 16.1567 49.7126 16.0096C49.6797 15.8571 49.618 15.7018 49.5274 15.5438C49.3382 15.1951 49.0131 15.0208 48.5523 15.0208C48.0996 15.0208 47.7417 15.0725 47.4783 15.176C46.894 15.4158 46.4702 16.0532 46.2069 17.0883Z" fill="#102E65"/>
<path d="M63.859 13.5007C64.04 13.5443 64.1306 13.6478 64.1306 13.8113L63.8466 15.2904C63.8302 15.3994 63.715 15.4539 63.501 15.4539C63.2953 15.4539 63.0978 15.4267 62.9085 15.3722C62.1102 15.1379 61.4478 15.0208 60.9211 15.0208C60.3944 15.0208 59.9747 15.1651 59.662 15.4539C59.3493 15.7426 59.0983 16.1567 58.909 16.6961C58.5551 17.704 58.3782 18.6247 58.3782 19.4583C58.3782 20.7985 58.9008 21.4686 59.9459 21.4686C60.703 21.4686 61.3161 21.406 61.7852 21.2807C62.2543 21.1499 62.5587 21.0845 62.6986 21.0845C62.9867 21.0845 63.1307 21.1663 63.1307 21.3297L62.8715 22.768C62.855 22.8661 62.8221 22.926 62.7727 22.9478C62.7316 22.9641 62.674 22.9832 62.5999 23.005C61.6041 23.1957 60.666 23.291 59.7854 23.291C58.9131 23.291 58.2218 23.2175 57.7116 23.0704C57.2096 22.9233 56.8105 22.7353 56.5142 22.5065C56.218 22.2722 55.9793 21.9916 55.7983 21.6648C55.4773 21.1036 55.3168 20.4144 55.3168 19.5972C55.3168 18.7745 55.395 18.0608 55.5514 17.4561C55.716 16.8459 55.8847 16.3501 56.0575 15.9687C56.2385 15.5874 56.4772 15.2223 56.7735 14.8737C57.0697 14.5195 57.4154 14.2281 57.8104 13.9992C58.6745 13.498 59.8183 13.2474 61.242 13.2474C62.1966 13.2474 63.069 13.3318 63.859 13.5007Z" fill="#102E65"/>
<path d="M71.2902 9.59443L70.5125 14.179C71.6235 13.5579 72.755 13.2474 73.9071 13.2474C75.2897 13.2474 76.162 13.7486 76.5241 14.7511C76.6228 15.0235 76.6722 15.2823 76.6722 15.5274C76.6722 15.7672 76.6599 15.9606 76.6352 16.1077L75.4501 22.956C75.4172 23.0922 75.3144 23.1657 75.1415 23.1766L72.648 23.2338C72.467 23.2229 72.3765 23.1712 72.3765 23.0786L73.4998 16.6062C73.5245 16.4645 73.5368 16.3365 73.5368 16.2221C73.5368 15.7753 73.3763 15.473 73.0554 15.315C72.7427 15.1515 72.3394 15.0698 71.8457 15.0698C71.3601 15.0698 70.854 15.1379 70.3273 15.2741L69.0188 22.956C68.9859 23.0922 68.8831 23.1657 68.7102 23.1766L66.2167 23.2338C66.0357 23.2229 65.9452 23.1712 65.9452 23.0786L68.2412 9.65163C68.2576 9.57536 68.2823 9.52088 68.3152 9.48819C68.3564 9.4555 68.4346 9.43643 68.5498 9.43098L70.9692 9.37378C71.1832 9.39012 71.2902 9.46367 71.2902 9.59443Z" fill="#102E65"/>
<path d="M28.9832 17.0322H32.6044V18.0798H28.9832V17.0322Z" fill="#102E65"/>
<defs>
<linearGradient id="paint0_linear_129_88" x1="19.97" y1="11.5282" x2="13.4037" y2="32.8056" gradientUnits="userSpaceOnUse">
<stop stop-color="#102E65"/>
<stop offset="1" stop-color="#4C76C2"/>
</linearGradient>
<linearGradient id="paint1_linear_129_88" x1="18.3576" y1="-1.024" x2="11.2954" y2="14.664" gradientUnits="userSpaceOnUse">
<stop stop-color="#102E65"/>
<stop offset="1" stop-color="#4C76C2"/>
</linearGradient>
</defs>
</svg>
